<svg id="Layer_1" data-name="Layer 1" xmlns="http://www.w3.org/2000/svg" viewBox="0 0 70.84 70.83"><defs><style>.cls-1{fill:#aaa;}</style></defs><path class="cls-1" d="M36.07,71.41A35.42,35.42,0,1,1,71.48,36,35.39,35.39,0,0,1,36.07,71.41ZM33,36c.23-.19.4-.3.55-.45L47.09,22a2.9,2.9,0,0,0,0-4.48l-4.35-4.36a2.91,2.91,0,0,0-4.52,0L17.61,33.82a2.87,2.87,0,0,0,0,4.38Q27.93,48.54,38.26,58.85a2.9,2.9,0,0,0,4.45,0l4.35-4.35a2.92,2.92,0,0,0,0-4.55L36.27,39.18C35.23,38.13,34.18,37.1,33,36Z" transform="translate(-0.64 -0.58)"/></svg>