<?xml version="1.0" encoding="utf-8"?>
<!-- Generator: Adobe Illustrator 26.0.3, SVG Export Plug-In . SVG Version: 6.00 Build 0)  -->
<svg version="1.1" id="Layer_1" xmlns="http://www.w3.org/2000/svg" xmlns:xlink="http://www.w3.org/1999/xlink" x="0px" y="0px"
	 viewBox="0 0 72 72" style="enable-background:new 0 0 72 72;" xml:space="preserve">
<style type="text/css">
	.st0{fill:#AAAAAA;}
</style>
<path class="st0" d="M36.05,0.58C55.67,0.58,71.41,16.39,71.48,36c0.06,19.21-15.66,35.43-35.41,35.41
	C16.45,71.38,0.7,55.58,0.64,35.97C0.59,16.65,16.43,0.49,36.05,0.58z M39.09,36.02c-0.23,0.18-0.4,0.3-0.55,0.44
	c-4.5,4.5-9.01,9-13.51,13.5c-1.41,1.41-1.41,3.06,0,4.48c1.45,1.46,2.9,2.91,4.36,4.36c1.44,1.43,3.07,1.43,4.51-0.01
	c6.87-6.87,13.75-13.75,20.62-20.62c1.35-1.35,1.35-3.03-0.01-4.38c-6.88-6.88-13.76-13.77-20.65-20.65c-1.39-1.39-3.06-1.39-4.45,0
	c-1.45,1.45-2.91,2.9-4.36,4.36c-1.45,1.45-1.45,3.09,0.01,4.54c3.59,3.59,7.19,7.19,10.78,10.78
	C36.89,33.86,37.94,34.89,39.09,36.02z"/>
</svg>
