<?xml version="1.0" encoding="utf-8"?>
<!-- Generator: Adobe Illustrator 26.0.3, SVG Export Plug-In . SVG Version: 6.00 Build 0)  -->
<svg version="1.1" id="Layer_1" xmlns="http://www.w3.org/2000/svg" xmlns:xlink="http://www.w3.org/1999/xlink" x="0px" y="0px"
	 viewBox="0 0 523 526" style="enable-background:new 0 0 523 526;" xml:space="preserve">
<style type="text/css">
	.st0{fill:#37AEE2;}
	.st1{fill:#C8DAEA;}
	.st2{fill:#A9C9DD;}
	.st3{fill:#F6FBFE;}
</style>
<path class="st0" d="M101.5,5.11h317c53.85,0,97.5,43.65,97.5,97.5v317c0,53.85-43.65,97.5-97.5,97.5h-317
	c-53.85,0-97.5-43.65-97.5-97.5v-317C4,48.76,47.65,5.11,101.5,5.11z"/>
<path class="st1" d="M203,409.11c-11,0-10-4-13-14l-32-105l245-144"/>
<path class="st2" d="M203,409.11c7,0,11-4,16-8l45-43l-56-34"/>
<path class="st3" d="M208,324.11l135,99c14,9,26,4,30-14l55-258c5-22-9-32-24-25l-321,124c-21,8-21,21-4,26l83,26l190-121
	c9-5,17-3,11,4"/>
</svg>
